<mxfile host="7111f9a5-929c-49dd-8205-d538dd631731" modified="2020-07-13T03:55:56.010Z" agent="5.0 (Windows NT 10.0; Win64; x64) AppleWebKit/537.36 (KHTML, like Gecko) Code/1.47.0 Chrome/78.0.3904.130 Electron/7.3.2 Safari/537.36" etag="teEJ_WEuJIZfNLm2F3Xw" version="13.1.3">
    <diagram id="6hGFLwfOUW9BJ-s0fimq" name="Login flow (Single page)">
        <mxGraphModel dx="990" dy="802" grid="1" gridSize="10" guides="1" tooltips="1" connect="1" arrows="1" fold="1" page="1" pageScale="1" pageWidth="827" pageHeight="1169" math="0" shadow="0">
            <root>
                <mxCell id="0"/>
                <mxCell id="1" parent="0"/>
                <mxCell id="20" style="edgeStyle=orthogonalEdgeStyle;rounded=0;orthogonalLoop=1;jettySize=auto;html=1;exitX=0.5;exitY=1;exitDx=0;exitDy=0;entryX=0.5;entryY=0;entryDx=0;entryDy=0;" parent="1" source="18" target="19" edge="1">
                    <mxGeometry relative="1" as="geometry"/>
                </mxCell>
                <mxCell id="21" value="Username, Password" style="edgeLabel;html=1;align=center;verticalAlign=middle;resizable=0;points=[];" parent="20" vertex="1" connectable="0">
                    <mxGeometry x="-0.2005" y="1" relative="1" as="geometry">
                        <mxPoint x="-1" y="6" as="offset"/>
                    </mxGeometry>
                </mxCell>
                <mxCell id="18" value="Login page" style="rounded=0;whiteSpace=wrap;html=1;" parent="1" vertex="1">
                    <mxGeometry x="360" y="119" width="120" height="60" as="geometry"/>
                </mxCell>
                <mxCell id="23" value="" style="edgeStyle=orthogonalEdgeStyle;rounded=0;orthogonalLoop=1;jettySize=auto;html=1;" parent="1" source="19" target="24" edge="1">
                    <mxGeometry relative="1" as="geometry">
                        <mxPoint x="599.9999999999998" y="269" as="targetPoint"/>
                        <Array as="points">
                            <mxPoint x="590" y="259"/>
                            <mxPoint x="590" y="259"/>
                        </Array>
                    </mxGeometry>
                </mxCell>
                <mxCell id="27" value="Username, Password" style="edgeLabel;html=1;align=center;verticalAlign=middle;resizable=0;points=[];" parent="23" vertex="1" connectable="0">
                    <mxGeometry x="0.1634" y="2" relative="1" as="geometry">
                        <mxPoint x="-13.1" y="-8" as="offset"/>
                    </mxGeometry>
                </mxCell>
                <mxCell id="33" style="edgeStyle=orthogonalEdgeStyle;rounded=0;orthogonalLoop=1;jettySize=auto;html=1;exitX=0.5;exitY=1;exitDx=0;exitDy=0;entryX=0.5;entryY=0;entryDx=0;entryDy=0;" parent="1" source="19" target="32" edge="1">
                    <mxGeometry relative="1" as="geometry"/>
                </mxCell>
                <mxCell id="19" value="/oauth/v1/login&lt;br&gt;Verify" style="rounded=0;whiteSpace=wrap;html=1;" parent="1" vertex="1">
                    <mxGeometry x="360" y="239" width="120" height="60" as="geometry"/>
                </mxCell>
                <mxCell id="30" style="edgeStyle=orthogonalEdgeStyle;rounded=0;orthogonalLoop=1;jettySize=auto;html=1;exitX=0;exitY=0.7;exitDx=0;exitDy=0;entryX=1;entryY=0.75;entryDx=0;entryDy=0;" parent="1" edge="1">
                    <mxGeometry relative="1" as="geometry">
                        <mxPoint x="480" y="287" as="targetPoint"/>
                        <mxPoint x="639.9999999999998" y="288" as="sourcePoint"/>
                        <Array as="points">
                            <mxPoint x="640" y="287"/>
                        </Array>
                    </mxGeometry>
                </mxCell>
                <mxCell id="31" value="Data" style="edgeLabel;html=1;align=center;verticalAlign=middle;resizable=0;points=[];" parent="30" vertex="1" connectable="0">
                    <mxGeometry x="0.1521" y="1" relative="1" as="geometry">
                        <mxPoint x="11.67" y="-9" as="offset"/>
                    </mxGeometry>
                </mxCell>
                <mxCell id="24" value="Database" style="shape=cylinder;whiteSpace=wrap;html=1;boundedLbl=1;backgroundOutline=1;" parent="1" vertex="1">
                    <mxGeometry x="639.9999999999998" y="229" width="60" height="80" as="geometry"/>
                </mxCell>
                <mxCell id="36" style="edgeStyle=orthogonalEdgeStyle;rounded=0;orthogonalLoop=1;jettySize=auto;html=1;exitX=0;exitY=0.5;exitDx=0;exitDy=0;entryX=1;entryY=0.5;entryDx=0;entryDy=0;" parent="1" source="32" edge="1">
                    <mxGeometry relative="1" as="geometry">
                        <mxPoint x="280" y="399" as="targetPoint"/>
                    </mxGeometry>
                </mxCell>
                <mxCell id="37" value="False" style="edgeLabel;html=1;align=center;verticalAlign=middle;resizable=0;points=[];" parent="36" vertex="1" connectable="0">
                    <mxGeometry x="-0.1643" y="1" relative="1" as="geometry">
                        <mxPoint x="-6.86" y="-11" as="offset"/>
                    </mxGeometry>
                </mxCell>
                <mxCell id="40" style="edgeStyle=orthogonalEdgeStyle;rounded=0;orthogonalLoop=1;jettySize=auto;html=1;exitX=0.5;exitY=1;exitDx=0;exitDy=0;entryX=0.5;entryY=0;entryDx=0;entryDy=0;" parent="1" source="32" target="38" edge="1">
                    <mxGeometry relative="1" as="geometry"/>
                </mxCell>
                <mxCell id="41" value="True" style="edgeLabel;html=1;align=center;verticalAlign=middle;resizable=0;points=[];" parent="40" vertex="1" connectable="0">
                    <mxGeometry x="-0.3238" y="1" relative="1" as="geometry">
                        <mxPoint x="-1" y="9.43" as="offset"/>
                    </mxGeometry>
                </mxCell>
                <mxCell id="32" value="Valid verify?" style="rhombus;whiteSpace=wrap;html=1;" parent="1" vertex="1">
                    <mxGeometry x="360" y="359" width="120" height="80" as="geometry"/>
                </mxCell>
                <mxCell id="65" style="edgeStyle=orthogonalEdgeStyle;rounded=0;orthogonalLoop=1;jettySize=auto;html=1;exitX=0.5;exitY=1;exitDx=0;exitDy=0;entryX=0.5;entryY=0;entryDx=0;entryDy=0;fontSize=7;" parent="1" source="38" target="64" edge="1">
                    <mxGeometry relative="1" as="geometry"/>
                </mxCell>
                <mxCell id="38" value="Generate token" style="rounded=0;whiteSpace=wrap;html=1;" parent="1" vertex="1">
                    <mxGeometry x="360" y="499" width="120" height="60" as="geometry"/>
                </mxCell>
                <mxCell id="72" style="edgeStyle=orthogonalEdgeStyle;rounded=0;orthogonalLoop=1;jettySize=auto;html=1;exitX=0.5;exitY=1;exitDx=0;exitDy=0;fontSize=7;entryX=0;entryY=0.5;entryDx=0;entryDy=0;" parent="1" source="43" target="74" edge="1">
                    <mxGeometry relative="1" as="geometry">
                        <mxPoint x="320" y="719" as="targetPoint"/>
                        <Array as="points">
                            <mxPoint x="220" y="769"/>
                        </Array>
                    </mxGeometry>
                </mxCell>
                <mxCell id="43" value="&lt;font style=&quot;font-size: 7px&quot;&gt;&lt;span style=&quot;font-size: 7px&quot;&gt;{&lt;/span&gt;&lt;br style=&quot;font-size: 7px&quot;&gt;&lt;span style=&quot;font-size: 7px&quot;&gt;&amp;nbsp; &amp;nbsp; &quot;message&quot;: &quot;Unauthorized&quot;,&lt;br&gt;&lt;/span&gt;&amp;nbsp; &amp;nbsp; &quot;code&quot;: &quot;401&quot;&lt;br style=&quot;font-size: 7px&quot;&gt;&lt;span style=&quot;font-size: 7px&quot;&gt;}&lt;/span&gt;&lt;/font&gt;" style="rounded=0;whiteSpace=wrap;html=1;align=left;verticalAlign=middle;spacing=6;fontSize=7;fontStyle=1;" parent="1" vertex="1">
                    <mxGeometry x="160" y="374" width="120" height="50" as="geometry"/>
                </mxCell>
                <mxCell id="49" value="" style="edgeStyle=orthogonalEdgeStyle;rounded=0;orthogonalLoop=1;jettySize=auto;html=1;entryX=0.5;entryY=1;entryDx=0;entryDy=0;" parent="1" target="53" edge="1">
                    <mxGeometry relative="1" as="geometry">
                        <mxPoint x="480" y="518" as="sourcePoint"/>
                        <mxPoint x="670" y="518" as="targetPoint"/>
                        <Array as="points">
                            <mxPoint x="670" y="518"/>
                        </Array>
                    </mxGeometry>
                </mxCell>
                <mxCell id="53" value="Redis" style="shape=cylinder;whiteSpace=wrap;html=1;boundedLbl=1;backgroundOutline=1;" parent="1" vertex="1">
                    <mxGeometry x="639.9999999999998" y="399" width="60" height="80" as="geometry"/>
                </mxCell>
                <mxCell id="54" value="Database" style="shape=cylinder;whiteSpace=wrap;html=1;boundedLbl=1;backgroundOutline=1;" parent="1" vertex="1">
                    <mxGeometry x="639.9999999999998" y="569" width="60" height="80" as="geometry"/>
                </mxCell>
                <mxCell id="60" value="" style="edgeStyle=orthogonalEdgeStyle;rounded=0;orthogonalLoop=1;jettySize=auto;html=1;entryX=0.5;entryY=0;entryDx=0;entryDy=0;" parent="1" target="54" edge="1">
                    <mxGeometry relative="1" as="geometry">
                        <mxPoint x="480" y="538.49" as="sourcePoint"/>
                        <mxPoint x="669.9999999999998" y="519.49" as="targetPoint"/>
                        <Array as="points">
                            <mxPoint x="670" y="538"/>
                        </Array>
                    </mxGeometry>
                </mxCell>
                <mxCell id="61" value="Access token, Refresh token" style="edgeLabel;html=1;align=center;verticalAlign=middle;resizable=0;points=[];" parent="60" vertex="1" connectable="0">
                    <mxGeometry x="0.1634" y="2" relative="1" as="geometry">
                        <mxPoint x="-31.71" y="-8" as="offset"/>
                    </mxGeometry>
                </mxCell>
                <mxCell id="71" style="edgeStyle=orthogonalEdgeStyle;rounded=0;orthogonalLoop=1;jettySize=auto;html=1;exitX=0.5;exitY=1;exitDx=0;exitDy=0;entryX=0.5;entryY=0;entryDx=0;entryDy=0;fontSize=7;" parent="1" target="68" edge="1">
                    <mxGeometry relative="1" as="geometry">
                        <mxPoint x="420" y="799" as="sourcePoint"/>
                    </mxGeometry>
                </mxCell>
                <mxCell id="75" style="edgeStyle=orthogonalEdgeStyle;rounded=0;orthogonalLoop=1;jettySize=auto;html=1;exitX=0.5;exitY=1;exitDx=0;exitDy=0;entryX=0.5;entryY=0;entryDx=0;entryDy=0;fontSize=7;" parent="1" source="64" target="74" edge="1">
                    <mxGeometry relative="1" as="geometry"/>
                </mxCell>
                <mxCell id="64" value="&lt;font style=&quot;font-size: 8px&quot;&gt;{&lt;br&gt;&amp;nbsp; &amp;nbsp; &quot;access_token&quot;: &quot;U4O0M2U0LTgwMmEtZlODliNjg1Y.....&quot;,&lt;br&gt;&amp;nbsp; &amp;nbsp; &quot;type&quot;: &quot;bearer&quot;,&lt;br&gt;&amp;nbsp; &amp;nbsp; &quot;exp&quot;: &quot;15300000&quot;, // Sec.&lt;br&gt;&amp;nbsp; &amp;nbsp; &quot;refresh_token&quot;: &quot;mEtZlODliNjgU4O0M2M1YzQ2OjE1.....&quot;,&lt;br&gt;&amp;nbsp; &amp;nbsp; &quot;session_token&quot;: &quot;eyJhbGciOiJIUzI1NiIsInR5cI6J9.ey.....&quot;&lt;br&gt;}&lt;/font&gt;" style="rounded=0;whiteSpace=wrap;html=1;fontSize=7;align=left;spacing=6;fontStyle=1" parent="1" vertex="1">
                    <mxGeometry x="300" y="619" width="240" height="60" as="geometry"/>
                </mxCell>
                <mxCell id="67" style="edgeStyle=orthogonalEdgeStyle;rounded=0;orthogonalLoop=1;jettySize=auto;html=1;exitX=0.5;exitY=1;exitDx=0;exitDy=0;entryX=0.5;entryY=0;entryDx=0;entryDy=0;fontSize=7;" parent="1" source="66" target="18" edge="1">
                    <mxGeometry relative="1" as="geometry"/>
                </mxCell>
                <mxCell id="66" value="&lt;b&gt;&lt;font style=&quot;font-size: 13px&quot;&gt;Start&lt;/font&gt;&lt;/b&gt;" style="ellipse;whiteSpace=wrap;html=1;fontSize=7;align=center;" parent="1" vertex="1">
                    <mxGeometry x="380" y="39" width="80" height="40" as="geometry"/>
                </mxCell>
                <mxCell id="68" value="&lt;b&gt;&lt;font style=&quot;font-size: 13px&quot;&gt;End&lt;/font&gt;&lt;/b&gt;" style="ellipse;whiteSpace=wrap;html=1;fontSize=7;align=center;" parent="1" vertex="1">
                    <mxGeometry x="380" y="840" width="80" height="40" as="geometry"/>
                </mxCell>
                <mxCell id="74" value="&lt;b&gt;&lt;font style=&quot;font-size: 10px&quot;&gt;Json Response&lt;/font&gt;&lt;/b&gt;" style="rounded=1;whiteSpace=wrap;html=1;fontSize=7;align=center;" parent="1" vertex="1">
                    <mxGeometry x="360" y="739" width="120" height="60" as="geometry"/>
                </mxCell>
            </root>
        </mxGraphModel>
    </diagram>
</mxfile>